# xmcd
#
# Track frame offsets:
#	150
#	14589
#	30484
#	40789
#	58118
#	75455
#	91709
#	108705
#	123383
#	138923
#	153051
#	167700
#
# Disc length: 2401 seconds
#
# Revision: 2
# Processed by: cddbd v1.5.2PL0 Copyright (c) Steve Scherf et al.
# Submitted via: EasyCDDAExtractor 16.0.9.1
#
DISCID=8b095f0c
DTITLE=Rosendo Amparano - La Nueva Propuesta
DYEAR=2012
DGENRE=Country
TTITLE0=Vivo Por Ti
TTITLE1=Dos Corazones Sin Suerte
TTITLE2=Amor Escondido
TTITLE3=El Juramento
TTITLE4=Si Aun Me Amas
TTITLE5=Reproches al Viento
TTITLE6=Hecho a tu Medida
TTITLE7=Un Adios en Silencio
TTITLE8=Si Sabes Contar
TTITLE9=Como te Atreves
TTITLE10=Por Ti
TTITLE11=El Pariente
EXTD=
EXTT0=
EXTT1=
EXTT2=
EXTT3=
EXTT4=
EXTT5=
EXTT6=
EXTT7=
EXTT8=
EXTT9=
EXTT10=
EXTT11=
PLAYORDER=
